<svg width="136" height="135" viewBox="0 0 136 135" fill="none" xmlns="http://www.w3.org/2000/svg">
<path d="M133.733 60.7339H99.7334V65.2332H133.733V60.7339Z" fill="#CAD4E9"/>
<path d="M47.6 62.9834H79.3333C80.58 62.9834 81.6 61.9711 81.6 60.734V42.7388H88.4V62.9834C88.4 65.4577 86.36 67.4822 83.8666 67.4822H52.1333C49.64 67.4822 47.6 65.4577 47.6 62.9834Z" fill="#CAD4E9"/>
<path d="M99.7335 53.9856H88.4001V62.9832H99.7335V53.9856Z" fill="#CAD4E9"/>
<path d="M119 51.7364L120.133 42.7388H104.267V51.7364H119Z" fill="#CAD4E9"/>
<path d="M104.267 65.2328V103.473C104.267 105.947 102.227 107.971 99.7334 107.971H24.9333V114.72H111.067L117.3 65.2328H104.267Z" fill="#CAD4E9"/>
<path d="M126.933 114.719H122.4V121.467C122.4 123.942 120.36 125.966 117.867 125.966H6.79993C5.1226 125.966 3.67193 125.066 2.8786 123.739C2.69727 123.447 2.2666 123.582 2.2666 123.919V125.966C2.2666 129.7 5.30393 132.714 9.0666 132.714H128.86C131.444 132.714 133.529 130.735 133.711 128.216H133.756V121.467C133.756 117.733 130.719 114.719 126.956 114.719H126.933Z" fill="#CAD4E9"/>
<path d="M49.8667 98.9736H86.1334V103.472C86.1334 109.681 81.056 114.719 74.8 114.719H61.2C54.944 114.719 49.8667 109.681 49.8667 103.472V98.9736Z" fill="#A07A6D"/>
<path d="M61.2 76.4795H56.6666V94.4747H61.2V76.4795Z" fill="#A07A6D"/>
<path d="M79.3334 76.4795H74.8V94.4747H79.3334V76.4795Z" fill="#A07A6D"/>
<path d="M124.667 44.988H11.3333C5.07733 44.988 0 39.9493 0 33.741V11.247C0 5.03866 5.07733 0 11.3333 0H97.4667C98.7133 0 99.7333 1.01223 99.7333 2.2494C99.7333 3.48657 98.7133 4.4988 97.4667 4.4988H11.3333C7.59333 4.4988 4.53333 7.53549 4.53333 11.247V33.741C4.53333 37.4525 7.59333 40.4892 11.3333 40.4892H124.667C128.407 40.4892 131.467 37.4525 131.467 33.741V11.247C131.467 7.53549 128.407 4.4988 124.667 4.4988H111.067C109.82 4.4988 108.8 3.48657 108.8 2.2494C108.8 1.01223 109.82 0 111.067 0H124.667C130.923 0 136 5.03866 136 11.247V33.741C136 39.9493 130.923 44.988 124.667 44.988Z" fill="#353C50"/>
<path d="M126.933 134.964H9.06667C4.05733 134.964 0 130.937 0 125.966V121.467C0 116.496 4.05733 112.47 9.06667 112.47H92.9333C94.18 112.47 95.2 113.482 95.2 114.719C95.2 115.956 94.18 116.969 92.9333 116.969H9.06667C6.57333 116.969 4.53333 118.993 4.53333 121.467V125.966C4.53333 128.44 6.57333 130.465 9.06667 130.465H126.933C129.427 130.465 131.467 128.44 131.467 125.966V121.467C131.467 118.993 129.427 116.969 126.933 116.969H106.533C105.287 116.969 104.267 115.956 104.267 114.719C104.267 113.482 105.287 112.47 106.533 112.47H126.933C131.943 112.47 136 116.496 136 121.467V125.966C136 130.937 131.943 134.964 126.933 134.964Z" fill="#353C50"/>
<path d="M24.9333 116.969C23.8 116.969 22.8253 116.137 22.6893 114.989L13.6227 43.0086C13.464 41.7714 14.348 40.6467 15.5947 40.4892C16.8413 40.3318 17.9747 41.209 18.1333 42.4462L27.2 114.427C27.3587 115.664 26.4747 116.789 25.228 116.946C25.1373 116.946 25.0467 116.946 24.956 116.946L24.9333 116.969Z" fill="#353C50"/>
<path d="M111.067 116.969C111.067 116.969 110.885 116.969 110.795 116.969C109.548 116.811 108.664 115.687 108.823 114.45L113.923 73.9604C114.081 72.7232 115.215 71.8459 116.461 72.0034C117.708 72.1608 118.592 73.2856 118.433 74.5227L113.333 115.012C113.197 116.159 112.223 116.991 111.089 116.991L111.067 116.969Z" fill="#353C50"/>
<path d="M68 33.7411C74.2592 33.7411 79.3333 28.7056 79.3333 22.4941C79.3333 16.2825 74.2592 11.2471 68 11.2471C61.7407 11.2471 56.6666 16.2825 56.6666 22.4941C56.6666 28.7056 61.7407 33.7411 68 33.7411Z" fill="#CAD4E9"/>
<path d="M99.7334 15.7458H90.6667V29.2422H99.7334V15.7458Z" fill="#CAD4E9"/>
<path d="M120.133 15.7458H111.067V29.2422H120.133V15.7458Z" fill="#CAD4E9"/>
<path d="M68 35.9904C60.4974 35.9904 54.4 29.9395 54.4 22.494C54.4 15.0484 60.4974 8.99756 68 8.99756C75.5027 8.99756 81.6 15.0484 81.6 22.494C81.6 29.9395 75.5027 35.9904 68 35.9904ZM68 13.4964C62.9907 13.4964 58.9334 17.5228 58.9334 22.494C58.9334 27.4651 62.9907 31.4916 68 31.4916C73.0094 31.4916 77.0667 27.4651 77.0667 22.494C77.0667 17.5228 73.0094 13.4964 68 13.4964Z" fill="#353C50"/>
<path d="M45.3334 15.7458H15.8667V29.2422H45.3334V15.7458Z" fill="#CAD4E9"/>
<path d="M45.3333 31.4918H15.8666C14.62 31.4918 13.6 30.4796 13.6 29.2424V15.746C13.6 14.5088 14.62 13.4966 15.8666 13.4966H45.3333C46.58 13.4966 47.6 14.5088 47.6 15.746V29.2424C47.6 30.4796 46.58 31.4918 45.3333 31.4918ZM18.1333 26.993H43.0666V17.9954H18.1333V26.993Z" fill="#353C50"/>
<path d="M99.7335 31.4918H90.6668C89.4201 31.4918 88.4001 30.4796 88.4001 29.2424V15.746C88.4001 14.5088 89.4201 13.4966 90.6668 13.4966H99.7335C100.98 13.4966 102 14.5088 102 15.746V29.2424C102 30.4796 100.98 31.4918 99.7335 31.4918ZM92.9335 26.993H97.4668V17.9954H92.9335V26.993Z" fill="#353C50"/>
<path d="M120.133 31.4918H111.067C109.82 31.4918 108.8 30.4796 108.8 29.2424V15.746C108.8 14.5088 109.82 13.4966 111.067 13.4966H120.133C121.38 13.4966 122.4 14.5088 122.4 15.746V29.2424C122.4 30.4796 121.38 31.4918 120.133 31.4918ZM113.333 26.993H117.867V17.9954H113.333V26.993Z" fill="#353C50"/>
<path d="M83.8667 69.7315H52.1334C48.3934 69.7315 45.3334 66.6948 45.3334 62.9833V44.9881C45.3334 43.7509 46.3534 42.7387 47.6 42.7387C48.8467 42.7387 49.8667 43.7509 49.8667 44.9881V62.9833C49.8667 64.2204 50.8867 65.2327 52.1334 65.2327H83.8667C85.1134 65.2327 86.1334 64.2204 86.1334 62.9833V42.7387C86.1334 41.5015 87.1534 40.4893 88.4 40.4893C89.6467 40.4893 90.6667 41.5015 90.6667 42.7387V62.9833C90.6667 66.6948 87.6067 69.7315 83.8667 69.7315Z" fill="#353C50"/>
<path d="M61.2 78.7291H56.6666C54.1733 78.7291 52.1333 76.7046 52.1333 74.2303V67.4821C52.1333 66.2449 53.1533 65.2327 54.4 65.2327H63.4666C64.7133 65.2327 65.7333 66.2449 65.7333 67.4821V74.2303C65.7333 76.7046 63.6933 78.7291 61.2 78.7291ZM56.6666 69.7315V74.2303H61.2V69.7315H56.6666Z" fill="#353C50"/>
<path d="M79.3334 78.7291H74.8001C72.3067 78.7291 70.2667 76.7046 70.2667 74.2303V67.4821C70.2667 66.2449 71.2867 65.2327 72.5334 65.2327H81.6001C82.8467 65.2327 83.8667 66.2449 83.8667 67.4821V74.2303C83.8667 76.7046 81.8267 78.7291 79.3334 78.7291ZM74.8001 69.7315V74.2303H79.3334V69.7315H74.8001Z" fill="#353C50"/>
<path d="M99.7333 65.2327H88.4C87.1533 65.2327 86.1333 64.2205 86.1333 62.9833V53.9857C86.1333 52.7486 87.1533 51.7363 88.4 51.7363H99.7333C100.98 51.7363 102 52.7486 102 53.9857V62.9833C102 64.2205 100.98 65.2327 99.7333 65.2327ZM90.6666 60.7339H97.4666V56.2351H90.6666V60.7339Z" fill="#353C50"/>
<path d="M131.467 67.482H102C99.5068 67.482 97.4668 65.4576 97.4668 62.9832V53.9856C97.4668 51.5113 99.5068 49.4868 102 49.4868H131.467C133.96 49.4868 136 51.5113 136 53.9856V62.9832C136 65.4576 133.96 67.482 131.467 67.482ZM102 53.9856V62.9832H131.467V53.9856H102Z" fill="#353C50"/>
<path d="M74.8 116.969H61.2C53.6973 116.969 47.6 110.918 47.6 103.472V87.7267C47.6 86.4895 48.62 85.4773 49.8666 85.4773H86.1333C87.38 85.4773 88.4 86.4895 88.4 87.7267V103.472C88.4 110.918 82.3026 116.969 74.8 116.969ZM52.1333 89.9761V103.472C52.1333 108.444 56.1906 112.47 61.2 112.47H74.8C79.8093 112.47 83.8666 108.444 83.8666 103.472V89.9761H52.1333Z" fill="#353C50"/>
</svg>
