<svg width="79" height="76" viewBox="0 0 79 76" fill="none" xmlns="http://www.w3.org/2000/svg">
<g filter="url(#filter0_d_1_1358)">
<path fill-rule="evenodd" clip-rule="evenodd" d="M0 34.1898C0 51.0935 12.2768 65.1497 28.3333 68V43.4435H19.8333V34H28.3333V26.4435C28.3333 17.9435 33.8102 13.2232 41.5565 13.2232C44.0102 13.2232 46.6565 13.6 49.1102 13.9768V22.6667H44.7667C40.6102 22.6667 39.6667 24.7435 39.6667 27.3898V34H48.7333L47.2232 43.4435H39.6667V68C55.7232 65.1497 68 51.0963 68 34.1898C68 15.385 52.7 0 34 0C15.3 0 0 15.385 0 34.1898Z" fill="#D9D9D9"/>
</g>
<defs>
<filter id="filter0_d_1_1358" x="0" y="0" width="79" height="76" filterUnits="userSpaceOnUse" color-interpolation-filters="sRGB">
<feFlood flood-opacity="0" result="BackgroundImageFix"/>
<feColorMatrix in="SourceAlpha" type="matrix" values="0 0 0 0 0 0 0 0 0 0 0 0 0 0 0 0 0 0 127 0" result="hardAlpha"/>
<feOffset dx="7" dy="4"/>
<feGaussianBlur stdDeviation="2"/>
<feComposite in2="hardAlpha" operator="out"/>
<feColorMatrix type="matrix" values="0 0 0 0 0 0 0 0 0 0 0 0 0 0 0 0 0 0 0.25 0"/>
<feBlend mode="normal" in2="BackgroundImageFix" result="effect1_dropShadow_1_1358"/>
<feBlend mode="normal" in="SourceGraphic" in2="effect1_dropShadow_1_1358" result="shape"/>
</filter>
</defs>
</svg>
