<svg width="78" height="76" viewBox="0 0 78 76" fill="none" xmlns="http://www.w3.org/2000/svg">
<g filter="url(#filter0_d_1_1350)">
<rect x="2" y="2.90088" width="62.7152" height="62.7152" rx="16" fill="#D9D9D9" stroke="#3C2314" stroke-width="4"/>
<rect x="10.702" y="11.6028" width="45.3113" height="45.3113" rx="16" stroke="#3C2314" stroke-width="4"/>
<circle cx="33.3576" cy="34.2585" r="9.55298" stroke="#E5A7A7" stroke-width="7"/>
<circle cx="33.3576" cy="34.2584" r="9.18543" fill="#3C2314"/>
<path d="M46.6884 34.0486C47.0173 33.9939 47.3781 33.9958 47.6992 33.9358C47.8835 33.9013 47.9107 33.9388 48.0905 33.9388C48.43 33.9388 48.7582 33.9785 49.1013 33.9937C49.4916 34.011 50.2751 34.4917 50.2751 34.8444C50.2751 34.9466 50.2819 34.9932 50.2751 35.0914C50.2606 35.2988 50.2085 35.2569 50.0939 35.4208C49.9925 35.5658 49.5277 35.6952 49.3295 35.6952C48.6393 35.6952 47.9362 35.7261 47.2753 35.6952C47.1507 35.6894 46.9193 35.6808 46.8225 35.6129C46.8086 35.6031 46.4798 35.6105 46.5979 35.5885C46.8306 35.5449 47.096 35.6328 47.3261 35.5732C47.5258 35.5215 47.781 35.4756 47.9927 35.4756C48.6491 35.4756 49.2582 35.6119 49.7824 35.1707C50.0238 34.9675 49.7722 34.6759 49.5433 34.5426C49.3909 34.4538 49.2308 34.2863 49.0361 34.2681C48.8884 34.2543 48.5828 34.1935 48.4491 34.1462C48.2181 34.0643 48.1062 34.1287 47.8876 34.1004C47.7408 34.0814 47.5258 34.0706 47.4058 33.9937C47.2702 33.9068 47.1052 33.9724 46.9601 33.9114C46.9238 33.8961 46.7838 33.8928 46.7681 33.8717C46.7554 33.8546 47.216 33.7819 47.2717 33.7772C47.4661 33.7608 47.6481 33.8469 47.8296 33.8809C48.1442 33.9397 48.4505 34.0253 48.7607 34.1157C49.0226 34.192 49.5268 34.3579 49.7172 34.5182C49.8054 34.5925 49.9429 34.8284 49.949 34.9268C49.9674 35.22 49.8041 35.1991 49.478 35.2561C49.2778 35.2911 47.2979 35.6146 47.4855 35.1585C47.6125 34.8496 48.4263 34.9179 48.7027 34.9542C48.7746 34.9637 49.0903 34.9486 48.9419 35.0061C48.5438 35.16 48.101 35.1554 47.6702 35.1433C47.6062 35.1415 46.8718 35.1243 46.9022 35.0091C46.9403 34.8646 47.646 34.8371 47.7608 34.8292C48.1309 34.8037 48.5523 34.7322 48.9237 34.7652C49.0686 34.778 48.3329 34.9093 48.239 34.9146C47.9361 34.9317 47.1825 35.0397 46.9275 34.8597C46.7564 34.7389 47.5071 34.4602 47.576 34.4389C47.7943 34.3714 48.3276 34.2365 48.4854 34.4755C48.5756 34.6122 47.9627 34.7209 47.8804 34.7286C47.4956 34.7645 47.036 34.6888 46.6884 34.5426C46.3832 34.4141 47.094 34.5109 47.1268 34.5151C47.6286 34.5795 48.1361 34.5798 48.6375 34.6401C48.9092 34.6728 48.6353 34.7095 48.5252 34.7042C48.0278 34.6802 47.5264 34.6148 47.0362 34.5426C46.8898 34.521 46.1941 34.3436 46.7464 34.3901C47.5054 34.454 49.7842 34.5832 49.0216 34.5974C48.6211 34.6049 48.2194 34.5974 47.8188 34.5974C47.7714 34.5974 47.0769 34.6278 47.3659 34.567C47.8627 34.4624 48.3083 34.546 48.7825 34.6828C48.8934 34.7148 49.4235 34.8601 49.3186 35.0365C49.1366 35.3429 47.7717 35.0208 48.1376 34.8292C48.4261 34.6781 48.9132 34.5885 49.2462 34.631C49.5843 34.6741 49.4374 34.8132 49.2172 34.9146C49.1579 34.9418 48.5699 35.1446 48.5325 35.003C48.49 34.8422 48.9947 34.871 49.0723 34.8841C49.3976 34.9388 48.9259 35.1657 48.8259 35.1951C48.4164 35.3157 47.8484 35.2793 47.4347 35.189C47.2376 35.146 46.6723 34.9821 46.6522 34.7621C46.6326 34.5482 47.133 34.3794 47.3079 34.3291C47.5488 34.2599 47.9621 34.2951 47.7825 34.5974C47.632 34.8508 47.211 34.9875 46.8913 34.9725C46.2975 34.9447 46.2962 34.1613 46.9819 34.3017C47.9396 34.4977 46.9098 35.2687 46.5073 34.817C46.1438 34.4091 47.2292 34.349 47.4565 34.7316C47.8305 35.3613 46.0674 35.4416 46.4711 34.8414C46.5795 34.6801 47.1747 34.5029 47.3514 34.6615C47.5436 34.834 46.9543 34.964 46.8333 34.9451C46.1521 34.8382 47.3326 34.2543 46.6232 34.6523" stroke="#E5A7A7" stroke-linecap="square"/>
<path d="M46.6404 32.8081C47.243 32.8081 47.8319 32.8825 48.3958 32.8825C48.7137 32.8825 49.2639 32.9939 49.5536 33.1221C50.2461 33.4286 51.0475 33.6806 51.0475 34.5559C51.0475 34.9815 51.0032 35.2149 50.5994 35.4278C50.2868 35.5925 49.8811 35.7088 49.5162 35.7088C49.0975 35.7088 48.7079 35.6344 48.2837 35.6344C48.0347 35.6344 47.7857 35.6344 47.5367 35.6344C47.2848 35.6344 47.015 35.5182 46.7898 35.6179C46.7021 35.6567 46.2689 35.56 46.4578 35.56C46.8892 35.56 47.2469 35.6127 47.6861 35.5641C48.144 35.5135 48.7358 35.8041 49.1801 35.6179C49.5646 35.4567 49.9699 35.623 50.3421 35.4113C50.5163 35.3122 50.7138 35.2309 50.8608 35.1138C50.9886 35.012 51.0415 34.836 51.1596 34.7419C51.3866 34.561 51.106 33.8084 50.9562 33.6428C50.7111 33.3715 50.2881 33.0312 49.8897 33.0312C49.692 33.0312 49.5351 32.9448 49.3295 32.9569C49.1747 32.9659 48.9961 33.0312 48.8066 33.0312C48.6074 33.0312 48.4082 33.0312 48.209 33.0312C47.9404 33.0312 47.8157 33.3052 47.6114 33.2544" stroke="#E5A7A7" stroke-linecap="square"/>
</g>
<defs>
<filter id="filter0_d_1_1350" x="0" y="0.900879" width="77.7152" height="74.7153" filterUnits="userSpaceOnUse" color-interpolation-filters="sRGB">
<feFlood flood-opacity="0" result="BackgroundImageFix"/>
<feColorMatrix in="SourceAlpha" type="matrix" values="0 0 0 0 0 0 0 0 0 0 0 0 0 0 0 0 0 0 127 0" result="hardAlpha"/>
<feOffset dx="7" dy="4"/>
<feGaussianBlur stdDeviation="2"/>
<feComposite in2="hardAlpha" operator="out"/>
<feColorMatrix type="matrix" values="0 0 0 0 0 0 0 0 0 0 0 0 0 0 0 0 0 0 0.25 0"/>
<feBlend mode="normal" in2="BackgroundImageFix" result="effect1_dropShadow_1_1350"/>
<feBlend mode="normal" in="SourceGraphic" in2="effect1_dropShadow_1_1350" result="shape"/>
</filter>
</defs>
</svg>
