<svg width="108" height="149" viewBox="0 0 108 149" fill="none" xmlns="http://www.w3.org/2000/svg">
<path d="M96 49.5208L91 67.0593H95.2C97.2 67.0593 99 65.8566 99.8 64.0276L106 49.5208H96Z" fill="#CAD4E9"/>
<path d="M86.5909 34.0454C85.2659 34.0454 84.1818 33.0395 84.1818 31.8101C84.1818 28.1219 80.9295 25.1042 76.9545 25.1042H48.0455C44.0705 25.1042 40.8182 28.1219 40.8182 31.8101C40.8182 33.0395 39.7341 34.0454 38.4091 34.0454C37.0841 34.0454 36 33.0395 36 31.8101C36 25.6407 41.3964 20.6336 48.0455 20.6336H76.9545C83.6036 20.6336 89 25.6407 89 31.8101C89 33.0395 87.9159 34.0454 86.5909 34.0454Z" fill="#353C50"/>
<path d="M62.5 15.4752C66.6421 15.4752 70 12.0109 70 7.73758C70 3.46423 66.6421 0 62.5 0C58.3579 0 55 3.46423 55 7.73758C55 12.0109 58.3579 15.4752 62.5 15.4752Z" fill="#A07A6D"/>
<path d="M90.1162 42.2993H82.4805L77.3173 70.1585C76.881 72.4862 74.8933 74.1523 72.542 74.1523H34L34.6302 77.5092C35.0666 79.8369 37.0543 81.503 39.4056 81.503H84.6863C87.0134 81.503 89.0254 79.8124 89.4617 77.5092L94.9157 48.1064C95.4733 45.0926 93.1947 42.2993 90.1404 42.2993H90.1162Z" fill="#CAD4E9"/>
<path d="M95.9466 139.89L90.158 101.099C89.7962 98.7234 87.7702 96.9778 85.3824 96.9778H78.5568L83.8871 132.617C84.3212 135.551 82.054 138.193 79.1115 138.193H30.3187L30.0534 139.89C29.6193 142.824 31.8865 145.467 34.829 145.467H91.171C94.1135 145.467 96.3807 142.824 95.9466 139.89Z" fill="#CAD4E9"/>
<path d="M41 81.5028V89.2404H72.7244C75.0894 89.2404 77.0961 91.0974 77.4544 93.625L77.9083 96.978H84V81.5028H41Z" fill="#CAD4E9"/>
<path d="M85.2281 84.5977H39.7815C36.2781 84.5977 33.2613 82.0002 32.6044 78.4191L27.1304 48.1566C26.7168 45.9374 27.3007 43.6677 28.6875 41.9276C30.0742 40.1875 32.1179 39.2039 34.3075 39.2039H90.7021C92.8917 39.2039 94.9353 40.2127 96.3221 41.9276C97.7089 43.6677 98.2684 45.9374 97.8792 48.1566L92.4051 78.4191C91.7726 82.0002 88.7558 84.5977 85.2281 84.5977ZM34.3075 44.2477C33.31 44.2477 32.7017 44.8277 32.4341 45.1556C32.1665 45.4834 31.7286 46.2148 31.9232 47.2235L37.3972 77.486C37.6162 78.6713 38.6137 79.554 39.7815 79.554H85.2281C86.3959 79.554 87.3933 78.6966 87.6123 77.5113L93.0863 47.2487C93.281 46.24 92.843 45.5086 92.5754 45.1808C92.3078 44.8277 91.6996 44.2729 90.7021 44.2729H34.3075V44.2477Z" fill="#353C50"/>
<path d="M83.6 99.0409H40.4C39.08 99.0409 38 97.9383 38 96.5907V81.8893C38 80.5417 39.08 79.4391 40.4 79.4391H83.6C84.92 79.4391 86 80.5417 86 81.8893V96.5907C86 97.9383 84.92 99.0409 83.6 99.0409ZM42.8 94.1405H81.2V84.3395H42.8V94.1405Z" fill="#353C50"/>
<path d="M90.7357 148.562H34.2401C32.136 148.562 30.1287 147.617 28.7502 145.976C27.3716 144.335 26.767 142.147 27.0814 140.008L32.8858 100.224C33.4178 96.5435 36.4409 93.8829 40.0686 93.8829H84.9314C88.5591 93.8829 91.558 96.5435 92.1143 100.224L97.9186 140.008C98.233 142.147 97.6284 144.335 96.2498 145.976C94.8713 147.617 92.864 148.562 90.7599 148.562H90.7357ZM40.0686 98.8311C38.8594 98.8311 37.8436 99.7262 37.6743 100.945L31.87 140.729C31.7733 141.45 31.9667 142.171 32.4262 142.718C32.8858 143.265 33.5387 143.589 34.2643 143.589H90.7599C91.4854 143.589 92.1143 143.29 92.5979 142.718C93.0575 142.171 93.2509 141.45 93.1542 140.729L87.3498 100.945C87.1805 99.7262 86.1648 98.8311 84.9556 98.8311H40.0444H40.0686Z" fill="#353C50"/>
<path d="M95.0834 69.1227H93.4306C92.0938 69.1227 91 68.0394 91 66.7155C91 65.3915 92.0938 64.3082 93.4306 64.3082H95.0834C96.0556 64.3082 96.9306 63.7305 97.3195 62.8398L101.889 52.272H95.8612C94.5244 52.272 93.4306 51.1887 93.4306 49.8647C93.4306 48.5407 94.5244 47.4575 95.8612 47.4575H105.584C106.41 47.4575 107.163 47.8667 107.601 48.5408C108.038 49.2148 108.136 50.0814 107.795 50.8036L101.768 64.7415C100.625 67.3895 97.9758 69.1227 95.0591 69.1227H95.0834Z" fill="#353C50"/>
<path d="M18.75 47.4575C10.0425 47.4575 3 55.1459 3 64.6521V94.1286C3 96.8306 5.025 99.0413 7.5 99.0413H12C14.475 99.0413 16.5 96.8306 16.5 94.1286V67.1085C16.5 64.4065 18.525 62.1957 21 62.1957L18.75 47.4575Z" fill="#CAD4E9"/>
<path d="M12 101.104H7.2C3.24 101.104 0 97.8343 0 93.8377V64.7713C0 54.0894 8.616 45.3937 19.2 45.3937C20.52 45.3937 21.6 46.4837 21.6 47.8159C21.6 49.1481 20.52 50.2381 19.2 50.2381C11.256 50.2381 4.8 56.7538 4.8 64.7713V93.8377C4.8 95.1699 5.88 96.2599 7.2 96.2599H12C13.32 96.2599 14.4 95.1699 14.4 93.8377V67.1935C14.4 63.1969 17.64 59.9269 21.6 59.9269C22.92 59.9269 24 61.0169 24 62.3491C24 63.6813 22.92 64.7713 21.6 64.7713C20.28 64.7713 19.2 65.8613 19.2 67.1935V93.8377C19.2 97.8343 15.96 101.104 12 101.104Z" fill="#353C50"/>
</svg>
