<svg width="32" height="29" viewBox="0 0 32 29" fill="none" xmlns="http://www.w3.org/2000/svg">
<path d="M8 18.6361C8 18.0869 8.21071 17.5602 8.58579 17.1719C8.96086 16.7836 9.46957 16.5654 10 16.5654C10.5304 16.5654 11.0391 16.7836 11.4142 17.1719C11.7893 17.5602 12 18.0869 12 18.6361V22.7774C12 23.3266 11.7893 23.8532 11.4142 24.2416C11.0391 24.6299 10.5304 24.848 10 24.848C9.46957 24.848 8.96086 24.6299 8.58579 24.2416C8.21071 23.8532 8 23.3266 8 22.7774V18.6361ZM14 18.6361C14 18.0869 14.2107 17.5602 14.5858 17.1719C14.9609 16.7836 15.4696 16.5654 16 16.5654C16.5304 16.5654 17.0391 16.7836 17.4142 17.1719C17.7893 17.5602 18 18.0869 18 18.6361V22.7774C18 23.3266 17.7893 23.8532 17.4142 24.2416C17.0391 24.6299 16.5304 24.848 16 24.848C15.4696 24.848 14.9609 24.6299 14.5858 24.2416C14.2107 23.8532 14 23.3266 14 22.7774V18.6361ZM20 18.6361C20 18.0869 20.2107 17.5602 20.5858 17.1719C20.9609 16.7836 21.4696 16.5654 22 16.5654C22.5304 16.5654 23.0391 16.7836 23.4142 17.1719C23.7893 17.5602 24 18.0869 24 18.6361V22.7774C24 23.3266 23.7893 23.8532 23.4142 24.2416C23.0391 24.6299 22.5304 24.848 22 24.848C21.4696 24.848 20.9609 24.6299 20.5858 24.2416C20.2107 23.8532 20 23.3266 20 22.7774V18.6361Z" fill="black"/>
<path d="M11.514 0.147272C11.6267 0.217138 11.725 0.309306 11.8033 0.418511C11.8815 0.527715 11.9383 0.651816 11.9702 0.783726C12.0022 0.915635 12.0087 1.05277 11.9894 1.18729C11.9702 1.32181 11.9255 1.45109 11.858 1.56774L6.766 10.3535H25.234L20.14 1.56774C20.0037 1.33215 19.9633 1.05013 20.0278 0.783745C20.0924 0.517355 20.2564 0.288409 20.484 0.147272C20.7116 0.00613494 20.9839 -0.0356319 21.2412 0.0311597C21.4985 0.0979512 21.7197 0.26783 21.856 0.503424L27.566 10.3535H31C31.2652 10.3535 31.5196 10.4626 31.7071 10.6568C31.8946 10.8509 32 11.1143 32 11.3888V13.4595C32 13.7341 31.8946 13.9974 31.7071 14.1916C31.5196 14.3857 31.2652 14.4948 31 14.4948H29.754L26.066 27.863C25.9764 28.1878 25.7869 28.4735 25.5263 28.6767C25.2658 28.88 24.9483 28.9898 24.622 28.9894H7.38C7.05373 28.9898 6.73624 28.88 6.47566 28.6767C6.21508 28.4735 6.02561 28.1878 5.936 27.863L2.246 14.4948H1C0.734784 14.4948 0.48043 14.3857 0.292893 14.1916C0.105357 13.9974 0 13.7341 0 13.4595V11.3888C0 11.1143 0.105357 10.8509 0.292893 10.6568C0.48043 10.4626 0.734784 10.3535 1 10.3535H4.434L10.14 0.503424C10.2075 0.386751 10.2965 0.284986 10.402 0.203941C10.5075 0.122895 10.6273 0.0641581 10.7547 0.0310846C10.8821 -0.00198885 11.0146 -0.00875068 11.1445 0.011185C11.2745 0.0311207 11.3993 0.0773635 11.512 0.147272H11.514ZM4.326 14.4948L7.754 26.9187H24.246L27.674 14.4948H4.326Z" fill="black"/>
</svg>
