<svg width="101" height="143" viewBox="0 0 101 143" fill="none" xmlns="http://www.w3.org/2000/svg">
<path d="M27.6 99.6598H92V135.253C92 137.863 89.93 139.998 87.4 139.998H32.2C29.67 139.998 27.6 137.863 27.6 135.253V99.6598Z" fill="#A07A6D"/>
<path d="M87.4 142.371H32.2C28.405 142.371 25.3 139.168 25.3 135.253V52.2027C25.3 48.2875 28.405 45.0841 32.2 45.0841H95.519C97.037 45.0841 98.463 45.8671 99.314 47.1722C100.165 48.4773 100.349 50.1146 99.797 51.5857L94.3 65.9415V75.955C94.3 77.26 93.265 78.3278 92 78.3278C90.735 78.3278 89.7 77.26 89.7 75.955V65.4907C89.7 65.1822 89.746 64.8975 89.861 64.6127L95.519 49.8536H32.2C30.935 49.8536 29.9 50.9213 29.9 52.2264V135.253C29.9 136.558 30.935 137.626 32.2 137.626H87.4C88.665 137.626 89.7 136.558 89.7 135.253V90.1684C89.7 88.8633 90.735 87.7955 92 87.7955C93.265 87.7955 94.3 88.8633 94.3 90.1684V135.253C94.3 139.168 91.195 142.371 87.4 142.371Z" fill="#353C50"/>
<path d="M87.4 40.3385C86.135 40.3385 85.1 39.2707 85.1 37.9657C85.1 32.7216 80.983 28.4742 75.9 28.4742H43.7C38.617 28.4742 34.5 32.7216 34.5 37.9657C34.5 39.2707 33.465 40.3385 32.2 40.3385C30.935 40.3385 29.9 39.2707 29.9 37.9657C29.9 30.1115 36.087 23.7285 43.7 23.7285H75.9C83.513 23.7285 89.7 30.1115 89.7 37.9657C89.7 39.2707 88.665 40.3385 87.4 40.3385Z" fill="#353C50"/>
<path d="M18.4 111.524C8.257 111.524 0 103.006 0 92.5413V59.3213C0 54.0773 4.117 49.8299 9.2 49.8299H18.4C19.665 49.8299 20.7 50.8977 20.7 52.2028C20.7 53.5078 19.665 54.5756 18.4 54.5756H9.2C6.67 54.5756 4.6 56.7112 4.6 59.3213V92.5413C4.6 100.395 10.787 106.778 18.4 106.778C19.665 106.778 20.7 107.846 20.7 109.151C20.7 110.456 19.665 111.524 18.4 111.524Z" fill="#353C50"/>
<path d="M18.4 102.033C13.317 102.033 9.20001 97.7855 9.20001 92.5415V61.6944C9.20001 60.3893 10.235 59.3215 11.5 59.3215H18.4C19.665 59.3215 20.7 60.3893 20.7 61.6944C20.7 62.9994 19.665 64.0672 18.4 64.0672H13.8V92.5415C13.8 95.1516 15.87 97.2872 18.4 97.2872C19.665 97.2872 20.7 98.355 20.7 99.6601C20.7 100.965 19.665 102.033 18.4 102.033Z" fill="#353C50"/>
<path d="M59.8 28.474C58.535 28.474 57.5 27.4062 57.5 26.1011V11.864C57.5 10.5589 58.535 9.49112 59.8 9.49112C61.065 9.49112 62.1 10.5589 62.1 11.864V26.1011C62.1 27.4062 61.065 28.474 59.8 28.474Z" fill="#353C50"/>
<path d="M69 2.37289H50.6C49.3297 2.37289 48.3 3.43526 48.3 4.74575V9.49147C48.3 10.802 49.3297 11.8643 50.6 11.8643H69C70.2702 11.8643 71.3 10.802 71.3 9.49147V4.74575C71.3 3.43526 70.2702 2.37289 69 2.37289Z" fill="#CAD4E9"/>
<path d="M69 14.2371H50.6C48.07 14.2371 46 12.1016 46 9.49143V4.74571C46 2.13557 48.07 0 50.6 0H69C71.53 0 73.6 2.13557 73.6 4.74571V9.49143C73.6 12.1016 71.53 14.2371 69 14.2371ZM50.6 4.74571V9.49143H69V4.74571H50.6Z" fill="#353C50"/>
<path d="M59.8 113.897C58.535 113.897 57.5 112.829 57.5 111.524V47.457C57.5 46.1519 58.535 45.0841 59.8 45.0841C61.065 45.0841 62.1 46.1519 62.1 47.457V111.524C62.1 112.829 61.065 113.897 59.8 113.897Z" fill="#353C50"/>
<path d="M82.8 113.898H36.8C35.535 113.898 34.5 112.83 34.5 111.525C34.5 110.22 35.535 109.152 36.8 109.152H82.8C84.065 109.152 85.1 110.22 85.1 111.525C85.1 112.83 84.065 113.898 82.8 113.898Z" fill="#353C50"/>
</svg>
